<svg xmlns="http://www.w3.org/2000/svg" viewBox="0 0 89.76 89.76"><defs><style>.cls-1{fill:#cdcdcd;}</style></defs><title>inРесурс 1</title><g id="Слой_2" data-name="Слой 2"><g id="Слой_1-2" data-name="Слой 1"><path class="cls-1" d="M49.68,39.41v-.1l-.07.1Z"/><path class="cls-1" d="M44.88,0A44.88,44.88,0,1,0,89.76,44.88,44.88,44.88,0,0,0,44.88,0ZM33,67H22.29V34.73H33ZM27.65,30.32h-.07c-3.6,0-5.93-2.48-5.93-5.57s2.4-5.57,6.07-5.57,5.92,2.41,6,5.57S31.4,30.32,27.65,30.32ZM71.69,67H61V49.73c0-4.34-1.55-7.3-5.43-7.3A5.87,5.87,0,0,0,50,46.36,7.26,7.26,0,0,0,49.68,49V67H38.95s.15-29.24,0-32.26H49.68V39.3A10.65,10.65,0,0,1,59.34,34c7.06,0,12.35,4.61,12.35,14.52Z"/></g></g></svg>